<svg xmlns="http://www.w3.org/2000/svg" viewBox="0 0 150 205" role="img" aria-label="FiveRocksGames mark"><path fill="#8CC63F" d="M18 18C20 7 31 3 47 5l61 8c17 2 25 10 24 22-1 13-12 22-29 25l-61 3C24 63 14 52 16 37l2-19z"/><path fill="#2F80ED" d="M20 77c1-10 10-17 22-17h28c13 0 21 8 20 20-1 15-12 24-30 26H40c-14 0-21-10-20-29z"/><path fill="#FFC928" d="M96 65c2-8 10-13 20-11l13 3c11 2 17 9 16 17-1 10-9 17-22 21l-11 2c-12 1-20-7-19-18l3-14z"/><path fill="#FF4B3E" d="M27 116c1-10 9-17 21-18l28 1c13 1 21 9 20 22-1 14-11 23-28 25H47c-14 0-21-10-20-30z"/><path fill="#B45AC9" d="M30 158c1-9 9-15 20-16h24c12 1 19 8 18 19-1 13-11 21-27 23H50c-13 0-21-9-20-26z"/></svg>